<svg width="239" height="234" viewBox="0 0 239 234" fill="none" xmlns="http://www.w3.org/2000/svg">
<g filter="url(#filter0_d_3259_2)">
<circle cx="113.5" cy="113.5" r="105.5" fill="white"/>
</g>
<path d="M94.693 82H40.0581C39.0894 82 38.137 82.2508 37.2936 82.7282C36.4502 83.2056 35.7444 83.8933 35.2446 84.7245C34.7449 85.5558 34.4682 86.5023 34.4414 87.4723C34.4146 88.4422 34.6387 89.4026 35.0918 90.2603L40.5561 100.625H30.6484C30.0194 100.624 29.4009 100.786 28.8531 101.096C28.3053 101.406 27.8468 101.852 27.5223 102.391C27.1978 102.931 27.0183 103.546 27.0013 104.175C26.9843 104.805 27.1304 105.429 27.4254 105.985L45.0038 139.308C45.3135 139.895 45.777 140.385 46.3443 140.728C46.9116 141.07 47.5614 141.251 48.2237 141.251C48.886 141.251 49.5357 141.07 50.1031 140.728C50.6704 140.385 51.1339 139.895 51.4436 139.308L56.2185 130.306L62.2076 141.663C62.6845 142.568 63.3987 143.325 64.2732 143.854C65.1477 144.383 66.1496 144.663 67.1712 144.664C68.1927 144.665 69.1953 144.388 70.0711 143.861C70.947 143.334 71.663 142.579 72.1421 141.675L99.5275 90.0582C99.9718 89.2227 100.193 88.2861 100.168 87.3398C100.144 86.3934 99.875 85.4695 99.3881 84.6581C98.9013 83.8466 98.213 83.1753 97.3902 82.7095C96.5674 82.2437 95.6381 81.9992 94.693 82ZM70.152 104.058L58.3445 126.321C58.1383 126.711 57.8299 127.038 57.4524 127.265C57.0749 127.493 56.6426 127.613 56.202 127.613C55.7614 127.613 55.3291 127.493 54.9516 127.265C54.5741 127.038 54.2657 126.711 54.0595 126.321L42.3653 104.154C42.1695 103.785 42.0724 103.371 42.0834 102.953C42.0945 102.534 42.2132 102.126 42.4281 101.767C42.643 101.408 42.9468 101.111 43.3101 100.905C43.6734 100.698 44.0838 100.589 44.5016 100.588H68.0712C68.4783 100.588 68.8784 100.694 69.2327 100.894C69.587 101.095 69.8834 101.384 70.0931 101.734C70.3028 102.083 70.4186 102.481 70.4293 102.889C70.4399 103.296 70.3451 103.7 70.154 104.06L70.152 104.058Z" fill="#F71963"/>
<path d="M152.806 105.945H146.838V126.461C146.837 126.648 146.763 126.827 146.631 126.959C146.499 127.091 146.32 127.165 146.134 127.166H141.526C141.339 127.165 141.161 127.091 141.029 126.959C140.897 126.827 140.822 126.648 140.822 126.461V105.945H134.81C134.72 105.949 134.629 105.934 134.545 105.902C134.46 105.87 134.382 105.822 134.317 105.759C134.251 105.697 134.199 105.622 134.163 105.539C134.126 105.455 134.107 105.366 134.106 105.275V101.647C134.107 101.556 134.126 101.467 134.163 101.384C134.199 101.301 134.251 101.226 134.317 101.163C134.382 101.101 134.46 101.052 134.545 101.02C134.629 100.988 134.72 100.974 134.81 100.977H152.813C152.999 100.969 153.181 101.034 153.32 101.16C153.458 101.285 153.541 101.46 153.551 101.647V105.277C153.541 105.465 153.456 105.64 153.317 105.765C153.177 105.891 152.993 105.955 152.806 105.945Z" fill="#F71963"/>
<path d="M171.991 127.017C169.639 127.353 167.264 127.506 164.888 127.475C160.35 127.475 156.339 126.312 156.339 119.899V108.194C156.339 101.781 160.385 100.653 164.923 100.653C167.287 100.622 169.65 100.775 171.991 101.111C172.483 101.181 172.695 101.358 172.695 101.816V105.098C172.694 105.285 172.62 105.464 172.488 105.596C172.356 105.728 172.177 105.802 171.991 105.803H164.581C162.935 105.803 162.33 106.366 162.33 108.2V111.408H171.719C171.906 111.408 172.084 111.483 172.216 111.615C172.348 111.747 172.422 111.926 172.423 112.113V115.452C172.422 115.639 172.348 115.818 172.216 115.95C172.084 116.082 171.906 116.157 171.719 116.157H162.33V119.893C162.33 121.726 162.927 122.29 164.581 122.29H171.991C172.177 122.291 172.356 122.365 172.488 122.497C172.62 122.63 172.694 122.809 172.695 122.995V126.273C172.695 126.735 172.483 126.947 171.991 127.017Z" fill="#F71963"/>
<path d="M198.537 127.158H192.951C192.764 127.173 192.576 127.13 192.413 127.036C192.25 126.942 192.119 126.801 192.037 126.631L187.188 118.919L182.794 126.462C182.547 126.884 182.303 127.167 181.918 127.167H176.711C176.645 127.175 176.579 127.17 176.516 127.151C176.452 127.132 176.394 127.1 176.344 127.057C176.294 127.014 176.254 126.96 176.226 126.9C176.199 126.84 176.184 126.775 176.184 126.709C176.191 126.623 176.214 126.539 176.254 126.462L183.869 113.732L176.169 101.644C176.131 101.581 176.107 101.511 176.099 101.438C176.112 101.308 176.173 101.189 176.271 101.103C176.37 101.018 176.497 100.974 176.626 100.98H182.29C182.677 100.98 182.959 101.332 183.167 101.65L187.668 108.768L192.025 101.65C192.103 101.473 192.224 101.319 192.377 101.202C192.531 101.085 192.711 101.008 192.902 100.98H198.109C198.194 100.962 198.282 100.97 198.362 101.002C198.443 101.035 198.512 101.09 198.561 101.162C198.61 101.234 198.636 101.318 198.637 101.405C198.638 101.492 198.613 101.577 198.566 101.65L190.903 113.812L198.895 126.468C198.957 126.575 198.994 126.696 199 126.82C198.994 127.018 198.819 127.158 198.537 127.158Z" fill="#F71963"/>
<path d="M125.665 101.045C125.539 101.046 125.418 101.09 125.321 101.17C125.224 101.25 125.158 101.361 125.134 101.484L120.028 120.417C119.958 120.804 119.853 120.945 119.536 120.945C119.219 120.945 119.114 120.798 119.044 120.417L113.932 101.48C113.907 101.357 113.841 101.246 113.744 101.166C113.648 101.086 113.526 101.042 113.401 101.041H108.375C108.293 101.041 108.212 101.06 108.138 101.095C108.065 101.131 108 101.183 107.949 101.247C107.898 101.312 107.863 101.386 107.845 101.466C107.827 101.546 107.827 101.629 107.846 101.709C107.846 101.709 114.084 123.422 114.152 123.635C114.486 124.796 115.205 125.808 116.191 126.503C117.178 127.198 118.371 127.536 119.575 127.459C120.771 127.506 121.95 127.158 122.929 126.469C123.909 125.779 124.635 124.786 124.996 123.643C125.095 123.35 131.195 101.709 131.195 101.709C131.213 101.63 131.214 101.547 131.195 101.467C131.177 101.387 131.142 101.313 131.091 101.249C131.04 101.185 130.975 101.133 130.902 101.098C130.828 101.062 130.748 101.043 130.666 101.043L125.665 101.045Z" fill="#F71963"/>
<path d="M94.693 82H40.0581C39.0894 82 38.137 82.2508 37.2936 82.7282C36.4502 83.2056 35.7444 83.8933 35.2446 84.7245C34.7449 85.5558 34.4682 86.5023 34.4414 87.4723C34.4146 88.4422 34.6387 89.4026 35.0918 90.2603L40.5561 100.625H30.6484C30.0194 100.624 29.4009 100.786 28.8531 101.096C28.3053 101.406 27.8468 101.852 27.5223 102.391C27.1978 102.931 27.0183 103.546 27.0013 104.175C26.9843 104.805 27.1304 105.429 27.4254 105.985L45.0038 139.308C45.3135 139.895 45.777 140.385 46.3443 140.728C46.9116 141.07 47.5614 141.251 48.2237 141.251C48.886 141.251 49.5357 141.07 50.1031 140.728C50.6704 140.385 51.1339 139.895 51.4436 139.308L56.2185 130.306L62.2076 141.663C62.6845 142.568 63.3987 143.325 64.2732 143.854C65.1477 144.383 66.1496 144.663 67.1712 144.664C68.1927 144.665 69.1953 144.388 70.0711 143.861C70.947 143.334 71.663 142.579 72.1421 141.675L99.5275 90.0582C99.9718 89.2227 100.193 88.2861 100.168 87.3398C100.144 86.3934 99.875 85.4695 99.3881 84.6581C98.9013 83.8466 98.213 83.1753 97.3902 82.7095C96.5674 82.2437 95.6381 81.9992 94.693 82ZM70.152 104.058L58.3445 126.321C58.1383 126.711 57.8299 127.038 57.4524 127.265C57.0749 127.493 56.6426 127.613 56.202 127.613C55.7614 127.613 55.3291 127.493 54.9516 127.265C54.5741 127.038 54.2657 126.711 54.0595 126.321L42.3653 104.154C42.1695 103.785 42.0724 103.371 42.0834 102.953C42.0945 102.534 42.2132 102.126 42.4281 101.767C42.643 101.408 42.9468 101.111 43.3101 100.905C43.6734 100.698 44.0838 100.589 44.5016 100.588H68.0712C68.4783 100.588 68.8784 100.694 69.2327 100.894C69.587 101.095 69.8834 101.384 70.0931 101.734C70.3028 102.083 70.4186 102.481 70.4293 102.889C70.4399 103.296 70.3451 103.7 70.154 104.06L70.152 104.058Z" fill="#F71963"/>
<defs>
<filter id="filter0_d_3259_2" x="-12" y="-5" width="251" height="251" filterUnits="userSpaceOnUse" color-interpolation-filters="sRGB">
<feFlood flood-opacity="0" result="BackgroundImageFix"/>
<feColorMatrix in="SourceAlpha" type="matrix" values="0 0 0 0 0 0 0 0 0 0 0 0 0 0 0 0 0 0 127 0" result="hardAlpha"/>
<feOffset dy="7"/>
<feGaussianBlur stdDeviation="10"/>
<feColorMatrix type="matrix" values="0 0 0 0 0 0 0 0 0 0 0 0 0 0 0 0 0 0 0.13 0"/>
<feBlend mode="normal" in2="BackgroundImageFix" result="effect1_dropShadow_3259_2"/>
<feBlend mode="normal" in="SourceGraphic" in2="effect1_dropShadow_3259_2" result="shape"/>
</filter>
</defs>
</svg>
